<?xml version="1.0" encoding="UTF-8"?>
<svg version="1.1" xmlns="http://www.w3.org/2000/svg" width="488" height="250">
<path d="M0 0 C0.87454834 0.00523682 1.74909668 0.01047363 2.65014648 0.01586914 C3.59438477 0.0190918 4.53862305 0.02231445 5.51147461 0.02563477 C6.50469727 0.03401367 7.49791992 0.04239258 8.52124023 0.05102539 C9.51833008 0.05553711 10.51541992 0.06004883 11.54272461 0.06469727 C14.01478872 0.07652532 16.48673541 0.0930069 18.95874023 0.11352539 C19.96240653 4.5777812 20.95909874 9.04351652 21.94946289 13.51074219 C22.2870846 15.02906879 22.62658195 16.54697963 22.96801758 18.06445312 C23.4594943 20.2503066 23.94412509 22.43758451 24.42749023 24.62524414 C24.58060669 25.29939865 24.73372314 25.97355316 24.89147949 26.6681366 C25.66711957 30.21182965 26.1296387 33.48498477 25.95874023 37.11352539 C26.61874023 37.11352539 27.27874023 37.11352539 27.95874023 37.11352539 C28.06831055 36.43249756 28.17788086 35.75146973 28.29077148 35.04980469 C29.08246824 31.5696377 30.31120442 28.44370894 31.64624023 25.13305664 C32.04008911 24.15196175 32.04008911 24.15196175 32.44189453 23.15104675 C33.27680723 21.07438749 34.11778263 19.00024298 34.95874023 16.92602539 C35.5242225 15.5205785 36.08933057 14.11498099 36.65405273 12.70922852 C40.76143478 2.5081363 40.76143478 2.5081363 41.95874023 0.11352539 C47.89874023 0.11352539 53.83874023 0.11352539 59.95874023 0.11352539 C59.25427078 3.63587266 58.61914353 6.27342674 57.31982422 9.51049805 C56.98534775 10.34972809 56.65087128 11.18895813 56.30625916 12.05361938 C55.94278885 12.95252899 55.57931854 13.8514386 55.20483398 14.77758789 C54.82569351 15.72427338 54.44655304 16.67095886 54.05592346 17.64633179 C53.25008156 19.65606605 52.44216187 21.66496823 51.63232422 23.6730957 C50.42085293 26.67748707 49.215558 29.68429168 48.01147461 32.69165039 C43.11881763 44.88686499 38.09014475 57.01681234 32.95874023 69.11352539 C26.02874023 69.11352539 19.09874023 69.11352539 11.95874023 69.11352539 C9.31874023 57.23352539 6.67874023 45.35352539 3.95874023 33.11352539 C1.44254688 38.14591211 -0.82002009 42.83033766 -2.83813477 48.01977539 C-3.07663147 48.62994507 -3.31512817 49.24011475 -3.56085205 49.86877441 C-4.30787894 51.78232811 -5.04966535 53.69786076 -5.79125977 55.61352539 C-6.30263 56.92616122 -6.81434608 58.23866237 -7.32641602 59.55102539 C-8.56808919 62.73720562 -9.80513921 65.92518685 -11.04125977 69.11352539 C-17.31125977 69.11352539 -23.58125977 69.11352539 -30.04125977 69.11352539 C-23.89714222 52.83991676 -17.49559918 36.67840359 -10.97875977 20.55102539 C-10.40183884 19.11971283 -10.40183884 19.11971283 -9.81326294 17.65948486 C-8.71375405 14.93335467 -7.61058782 12.20873676 -6.50610352 9.48461914 C-6.17109833 8.65348099 -5.83609314 7.82234283 -5.49093628 6.96601868 C-2.71792855 0.15115857 -2.71792855 0.15115857 0 0 Z " fill="#1189F9" transform="translate(54.041259765625,100.886474609375)"/>
<path d="M0 0 C0.66 0 1.32 0 2 0 C1.36552275 4.65414676 -0.53590796 8.54532793 -2.59765625 12.70703125 C-2.95137802 13.43242599 -3.30509979 14.15782074 -3.66954041 14.90519714 C-4.79511865 17.21032386 -5.92867335 19.51142105 -7.0625 21.8125 C-7.82930659 23.37929775 -8.59558855 24.94635237 -9.36132812 26.51367188 C-11.23482179 30.34544988 -13.1154766 34.17363532 -15 38 C-13.11861328 38.57041016 -13.11861328 38.57041016 -11.19921875 39.15234375 C-5.44629548 41.07598098 -0.17232267 43.74361044 5.1875 46.5625 C6.1976416 47.09262695 7.2077832 47.62275391 8.24853516 48.16894531 C16.36131387 52.50631637 23.81449149 57.26719267 31 63 C31.85722656 63.67546875 32.71445312 64.3509375 33.59765625 65.046875 C40.07618974 70.45466589 45.64932536 77.18175916 49 85 C49 85.969375 49 86.93875 49 87.9375 C49.69207703 91.13863012 49.69207703 91.13863012 52.28515625 92.49609375 C54.82661992 93.75788936 57.37517926 94.92339476 60 96 C56.59068103 97.13643966 55.99664544 96.86747764 52.8125 95.5625 C52.09707031 95.27503906 51.38164062 94.98757812 50.64453125 94.69140625 C50.10183594 94.46324219 49.55914062 94.23507813 49 94 C48.67 95.32 48.34 96.64 48 98 C44.37 98 40.74 98 37 98 C38.33333333 95.33333333 39.66666667 92.66666667 41 90 C40.41226807 89.83636963 39.82453613 89.67273926 39.21899414 89.50415039 C32.44174467 87.55216998 25.96340357 85.10144198 19.4375 82.4375 C18.36556396 82.00493896 17.29362793 81.57237793 16.18920898 81.12670898 C11.64593058 79.29318935 7.10685812 77.44935606 2.56738281 75.60644531 C-0.76613468 74.25486419 -4.10175827 72.90858022 -7.4375 71.5625 C-8.95355835 70.94362915 -8.95355835 70.94362915 -10.50024414 70.31225586 C-16.58470703 67.85770808 -22.67883608 65.75987442 -29 64 C-29.42595459 64.73186523 -29.85190918 65.46373047 -30.29077148 66.21777344 C-38.55009633 80.39424297 -46.87381131 94.52331852 -55.42205811 108.52789307 C-60.80037305 117.34129153 -66.10060936 126.19770907 -71.35580444 135.08505249 C-77.52131903 145.50800139 -83.70269324 155.92186175 -90.00534058 166.26263428 C-91.04221389 167.96666124 -92.07208325 169.6749437 -93.10180664 171.38330078 C-93.71918701 172.39118652 -94.33656738 173.39907227 -94.97265625 174.4375 C-95.78101929 175.76587891 -95.78101929 175.76587891 -96.60571289 177.12109375 C-97.06582764 177.74113281 -97.52594238 178.36117187 -98 179 C-98.66 179 -99.32 179 -100 179 C-98.58061042 174.2933655 -96.60702584 170.06560146 -94.2890625 165.75 C-93.92512894 165.06388641 -93.56119537 164.37777283 -93.18623352 163.67086792 C-92.00375508 161.4447625 -90.81455068 159.2223331 -89.625 157 C-88.79862902 155.44822876 -87.97254063 153.896307 -87.14672852 152.34423828 C-82.33554908 143.31354434 -77.47265172 134.31214193 -72.54711914 125.34326172 C-67.3983656 115.94944571 -62.39605985 106.47833572 -57.38476562 97.01074219 C-53.96359761 90.55158161 -50.52704812 84.1023896 -47.0234375 77.6875 C-46.41556396 76.57358887 -45.80769043 75.45967773 -45.18139648 74.31201172 C-44.04403502 72.23345697 -42.90308802 70.15685897 -41.75805664 68.08251953 C-41.00963501 66.71522705 -41.00963501 66.71522705 -40.24609375 65.3203125 C-39.80966553 64.52898926 -39.3732373 63.73766602 -38.92358398 62.92236328 C-37.8556484 61.05499721 -37.8556484 61.05499721 -38 59 C-47.92772159 54.30517399 -57.86921911 49.64065045 -67.82727051 45.01049805 C-69.24351711 44.35182681 -70.65946625 43.69251547 -72.07507324 43.0324707 C-76.43618323 40.99984647 -80.80835107 38.9934728 -85.1875 37 C-86.30745361 36.47825195 -87.42740723 35.95650391 -88.58129883 35.41894531 C-89.6205249 34.95069336 -90.65975098 34.48244141 -91.73046875 34 C-92.63176514 33.5875 -93.53306152 33.175 -94.46166992 32.75 C-97.41818369 31.87643933 -99.08098788 32.08481984 -102 33 C-103.93084565 34.58605179 -104.88290172 35.76580344 -106 38 C-106.71293356 46.27002926 -104.21511433 51.49191061 -99.0625 57.875 C-89.49067038 68.23605025 -77.16416129 75.15310682 -65 82 C-65.66 82.66 -66.32 83.32 -67 84 C-72.4966938 83.81298231 -76.27955243 81.3404297 -80.75 78.4375 C-81.45374756 77.98858398 -82.15749512 77.53966797 -82.88256836 77.07714844 C-88.56130024 73.40202371 -93.84919318 69.38488759 -99 65 C-99.63164062 64.51273437 -100.26328125 64.02546875 -100.9140625 63.5234375 C-107.67568131 58.1915883 -113.82076554 50.41775676 -115.40625 41.7890625 C-115.60643773 37.16806237 -115.13247072 34.55380016 -112.125 30.9375 C-110.5078125 29.21484375 -110.5078125 29.21484375 -109 28 C-108.34 28 -107.68 28 -107 28 C-107 27.34 -107 26.68 -107 26 C-107.68860107 25.8956665 -108.37720215 25.79133301 -109.08666992 25.68383789 C-112.52424955 24.87694436 -115.41755254 23.56160771 -118.61328125 22.05859375 C-119.22769577 21.77146011 -119.84211029 21.48432648 -120.47514343 21.18849182 C-122.42337328 20.27660162 -124.367941 19.35718807 -126.3125 18.4375 C-127.63843666 17.81525374 -128.96460626 17.19350361 -130.29101562 16.57226562 C-133.5300596 15.05390965 -136.76586484 13.52878897 -140 12 C-137.02269165 10.69895962 -135.79740461 11.06613675 -132.64355469 12.09570312 C-131.31538797 12.64737396 -129.99171212 13.2099379 -128.671875 13.78125 C-127.21759448 14.38186541 -125.76316249 14.98211419 -124.30859375 15.58203125 C-122.0305693 16.53704731 -119.7552211 17.49777459 -117.48291016 18.46630859 C-115.28134017 19.39971297 -113.07127519 20.31015126 -110.859375 21.21875 C-110.19137878 21.51140747 -109.52338257 21.80406494 -108.83514404 22.10559082 C-103.74051633 24.18048106 -100.4068858 23.96484563 -95 23 C-72.07624002 21.52128926 -50.83321632 25.03731082 -29.10180664 32.20751953 C-24.59401754 33.7924588 -24.59401754 33.7924588 -20 33 C-18.26007544 30.65105553 -18.26007544 30.65105553 -16.6015625 27.71484375 C-15.95703125 26.62623047 -15.3125 25.53761719 -14.6484375 24.41601562 C-13.97364813 23.25669091 -13.29917099 22.09718442 -12.625 20.9375 C-11.30526678 18.69627337 -9.98496626 16.4553807 -8.6640625 14.21484375 C-8.03661133 13.14991699 -7.40916016 12.08499023 -6.76269531 10.98779297 C-6.18100586 10.00182129 -5.59931641 9.01584961 -5 8 C-4.49823242 7.14422363 -3.99646484 6.28844727 -3.47949219 5.40673828 C-2.37569467 3.56964021 -1.1968552 1.77787399 0 0 Z M-93 29 C-92.42085846 29.229151 -91.84171692 29.458302 -91.24502563 29.69439697 C-85.17709691 32.09535833 -79.10927145 34.49658053 -73.04150391 36.89794922 C-70.78176437 37.79222087 -68.52199916 38.68642766 -66.26220703 39.58056641 C-63.00025671 40.87124547 -59.73840105 42.1621635 -56.4765625 43.453125 C-55.47823395 43.84808167 -54.4799054 44.24303833 -53.45132446 44.64996338 C-52.49108368 45.03005554 -51.5308429 45.41014771 -50.54150391 45.80175781 C-49.61621887 46.16450806 -48.69093384 46.5272583 -47.73760986 46.90100098 C-45.8929581 47.64152669 -44.0597363 48.4111017 -42.23846436 49.20739746 C-40.93005585 49.77134216 -40.93005585 49.77134216 -39.59521484 50.34667969 C-38.8286557 50.68850281 -38.06209656 51.03032593 -37.27230835 51.38250732 C-34.45319194 52.14859338 -32.76139087 51.91317389 -30 51 C-27.87131734 48.2677032 -27.87131734 48.2677032 -26.1875 44.9375 C-25.28064453 43.28041016 -25.28064453 43.28041016 -24.35546875 41.58984375 C-23.90816406 40.73519531 -23.46085937 39.88054688 -23 39 C-38.09382591 28.93744939 -76.346814 20.24323031 -93 29 Z M-17 41 C-18.17154293 43.28929053 -19.33738074 45.58118362 -20.5 47.875 C-20.83386719 48.52597656 -21.16773438 49.17695312 -21.51171875 49.84765625 C-23.36843717 53.2524471 -23.36843717 53.2524471 -24 57 C-9.87401013 63.87172493 4.26575101 70.71287104 18.5057373 77.34585571 C20.27450647 78.16980147 22.04205251 78.99637129 23.80957031 79.82299805 C29.47380425 82.45042906 35.11393574 84.91370926 41 87 C38.07856737 73.51646478 26.09138168 64.21357943 15 57 C-0.13235728 46.35199539 -0.13235728 46.35199539 -17 41 Z " fill="#1189F9" transform="translate(263,14)"/>
<path d="M0 0 C5.61 0 11.22 0 17 0 C16.212919 4.72248598 15.36363573 8.0108948 13.60742188 12.34082031 C13.36504288 12.94320526 13.12266388 13.54559021 12.87294006 14.16622925 C12.07735738 16.13926927 11.27317539 18.10867563 10.46875 20.078125 C9.91155839 21.45460718 9.35488493 22.83129922 8.79870605 24.20819092 C7.33811541 27.81977605 5.87007539 31.42828812 4.40057373 35.03625488 C3.19985388 37.98780413 2.00433774 40.94144708 0.80910492 43.89522171 C-1.65768667 49.99125159 -4.12855437 56.08562825 -6.60742188 62.17675781 C-7.04630737 63.2556427 -7.48519287 64.33452759 -7.93737793 65.44610596 C-8.57753534 66.98465315 -9.2547579 68.50951579 -10 70 C-16.62024669 70.05069859 -23.24044334 70.08573295 -29.86083984 70.10986328 C-32.11313752 70.11992253 -34.36542214 70.13357146 -36.61767578 70.15087891 C-39.85452498 70.17513031 -43.09120155 70.1864839 -46.328125 70.1953125 C-47.33554749 70.20563507 -48.34296997 70.21595764 -49.38092041 70.22659302 C-50.79193024 70.22681961 -50.79193024 70.22681961 -52.23144531 70.22705078 C-53.47054657 70.23371262 -53.47054657 70.23371262 -54.73468018 70.24050903 C-57.2614006 69.9722471 -58.85630055 69.34955405 -61 68 C-63.28884788 63.42230423 -62.4332656 58.47376791 -61.04541016 53.75292969 C-59.94469057 50.72416053 -58.79536308 47.72520703 -57.57495117 44.74267578 C-56.81392201 42.87848332 -56.08025482 41.0051861 -55.34960938 39.12890625 C-51.58075419 29.70929771 -48.46632377 22.47498942 -39 18 C-35.42303545 16.81270869 -32.01556551 16.88589664 -28.265625 16.90234375 C-26.97011719 16.90556641 -25.67460937 16.90878906 -24.33984375 16.91210938 C-22.97656183 16.92046402 -21.61328058 16.92892896 -20.25 16.9375 C-18.87109535 16.94251832 -17.49218896 16.94708065 -16.11328125 16.95117188 C-12.74214341 16.96295907 -9.37109372 16.97941365 -6 17 C-5.80301514 16.40324463 -5.60603027 15.80648926 -5.40307617 15.19165039 C-2.78877417 7.30393234 -2.78877417 7.30393234 -1.3125 3.4375 C-0.879375 2.303125 -0.44625 1.16875 0 0 Z M-34.40625 32.98046875 C-36.41684842 36.78976429 -38.15902222 40.62365674 -39.75 44.625 C-40.06582031 45.388125 -40.38164062 46.15125 -40.70703125 46.9375 C-42.51080207 51.32005092 -42.51080207 51.32005092 -43 56 C-40.65147472 57.17426264 -39.26225935 57.11508173 -36.6484375 57.09765625 C-35.79765625 57.09443359 -34.946875 57.09121094 -34.0703125 57.08789062 C-32.73613281 57.07532227 -32.73613281 57.07532227 -31.375 57.0625 C-30.4778125 57.05798828 -29.580625 57.05347656 -28.65625 57.04882812 C-26.43743352 57.03702591 -24.21874982 57.02056155 -22 57 C-20.32760079 53.04406422 -18.66305618 49.0848716 -17 45.125 C-16.52304687 43.99707031 -16.04609375 42.86914062 -15.5546875 41.70703125 C-15.10351562 40.63066406 -14.65234375 39.55429688 -14.1875 38.4453125 C-13.76855469 37.45031738 -13.34960938 36.45532227 -12.91796875 35.43017578 C-11.88221078 33.12113388 -11.88221078 33.12113388 -12 31 C-15.24952748 30.85453217 -18.49821713 30.7658832 -21.75 30.6875 C-22.67039062 30.64560547 -23.59078125 30.60371094 -24.5390625 30.56054688 C-29.90969104 30.38191937 -29.90969104 30.38191937 -34.40625 32.98046875 Z " fill="#2A2A2A" transform="translate(447,100)"/>
<path d="M0 0 C0.72660324 0.00062943 1.45320648 0.00125885 2.201828 0.00190735 C3.02641006 -0.00432144 3.85099213 -0.01055023 4.70056152 -0.01696777 C5.59325241 -0.00775803 6.4859433 0.00145172 7.40568542 0.01094055 C8.32323105 0.01044205 9.24077667 0.00994354 10.18612671 0.00942993 C12.13051005 0.01177342 14.07489626 0.02151806 16.01921082 0.03804016 C18.98880848 0.06154493 21.95750331 0.05861407 24.9271698 0.05195618 C26.81584701 0.05753589 28.70452044 0.06464761 30.59318542 0.07344055 C31.47980362 0.07252914 32.36642181 0.07161774 33.27990723 0.07067871 C41.38186483 0.16327391 41.38186483 0.16327391 45.19865417 2.3742218 C47.22184868 6.01597191 47.50967994 8.00869764 46.58390808 12.07319641 C44.00751766 20.23953801 41.04196942 28.18728194 37.82487488 36.11738586 C36.99603605 38.16150682 36.17593202 40.20898368 35.3568573 42.2570343 C31.34674331 52.22613266 31.34674331 52.22613266 30.19865417 53.3742218 C28.77754175 53.48271032 27.351145 53.52323449 25.9259491 53.53535461 C24.56399666 53.54976593 24.56399666 53.54976593 23.17453003 53.56446838 C21.69180351 53.5708432 21.69180351 53.5708432 20.17912292 53.5773468 C19.1690065 53.58304688 18.15889008 53.58874695 17.11816406 53.59461975 C14.97532708 53.60408683 12.83247542 53.61061048 10.68962097 53.61445618 C7.41047191 53.62414991 4.13195251 53.65515263 0.85295105 53.6867218 C-1.22582126 53.69325268 -3.30459806 53.69850282 -5.38337708 53.7023468 C-6.85699455 53.720867 -6.85699455 53.720867 -8.36038208 53.73976135 C-9.27780685 53.73676025 -10.19523163 53.73375916 -11.14045715 53.73066711 C-11.94574356 53.73431274 -12.75102997 53.73795837 -13.58071899 53.74171448 C-16.40677281 53.27402938 -17.76984602 52.37738841 -19.80134583 50.3742218 C-20.424775 44.67344152 -19.48474049 40.11789463 -17.30134583 34.8117218 C-16.90302551 33.83392761 -16.90302551 33.83392761 -16.49665833 32.83638 C-14.07781157 27.30729022 -11.07607674 23.35095414 -5.80134583 20.3742218 C-1.60889957 18.76947019 1.99317649 18.09319639 6.47209167 17.9601593 C7.62580261 17.92148743 8.77951355 17.88281555 9.96818542 17.8429718 C11.15799011 17.8120343 12.3477948 17.7810968 13.57365417 17.7492218 C14.78666199 17.71054993 15.9996698 17.67187805 17.24943542 17.6320343 C20.23235938 17.53808394 23.21528243 17.45241373 26.19865417 17.3742218 C26.69365417 15.8892218 26.69365417 15.8892218 27.19865417 14.3742218 C15.97865417 14.0442218 4.75865417 13.7142218 -6.80134583 13.3742218 C-2.97445855 0.6179309 -2.97445855 0.6179309 0 0 Z M0.06193542 33.64375305 C-1.00231767 36.53259334 -1.00231767 36.53259334 -0.80134583 40.3742218 C5.46865417 40.3742218 11.73865417 40.3742218 18.19865417 40.3742218 C19.51865417 37.4042218 20.83865417 34.4342218 22.19865417 31.3742218 C18.92645513 31.2395018 15.65976876 31.14025265 12.38615417 31.0617218 C11.45738464 31.01982727 10.52861511 30.97793274 9.57170105 30.93476868 C4.19910539 30.65586013 4.19910539 30.65586013 0.06193542 33.64375305 Z " fill="#1189F9" transform="translate(118.80134582519531,116.62577819824219)"/>
<path d="M0 0 C1.17443161 -0.00855011 1.17443161 -0.00855011 2.37258911 -0.01727295 C4.02848971 -0.02671345 5.68440901 -0.03325316 7.34033203 -0.03710938 C9.86654616 -0.04681252 12.39194558 -0.07784282 14.91796875 -0.109375 C16.52864101 -0.11590575 18.13931908 -0.12115594 19.75 -0.125 C20.8783577 -0.1435202 20.8783577 -0.1435202 22.0295105 -0.16241455 C27.78922274 -0.13809234 30.97730405 1.17261655 35.0078125 5.203125 C35.44115279 10.93660894 34.717675 14.94063541 32.55859375 20.3359375 C32.30409958 20.97626923 32.04960541 21.61660095 31.78739929 22.27633667 C31.25012616 23.61839889 30.70607231 24.95776501 30.15551758 26.29443359 C29.32229232 28.32330421 28.51631076 30.36151424 27.71289062 32.40234375 C27.18388259 33.71418434 26.65333413 35.02540501 26.12109375 36.3359375 C25.64454346 37.51043457 25.16799316 38.68493164 24.67700195 39.89501953 C21.30375602 46.58033215 17.08995088 50.74261601 10.0078125 53.203125 C1.47739463 54.63537711 -7.2562575 54.30564957 -15.8671875 54.078125 C-17.15882813 54.0678125 -18.45046875 54.0575 -19.78125 54.046875 C-21.02390625 54.01335937 -22.2665625 53.97984375 -23.546875 53.9453125 C-25.22499268 53.91219971 -25.22499268 53.91219971 -26.93701172 53.87841797 C-30.9638687 52.98835193 -32.50370041 51.44246116 -34.9921875 48.203125 C-36.41522119 40.82558722 -32.15880629 32.7363477 -29.3046875 26.140625 C-28.88251953 25.11646484 -28.46035156 24.09230469 -28.02539062 23.03710938 C-24.10946625 13.79363781 -20.45072109 5.48623455 -10.9921875 1.203125 C-7.29657296 -0.02874651 -3.85059025 0.021638 0 0 Z M-6.9921875 16.203125 C-8.96422921 19.16967185 -10.18516537 22.31444708 -11.4296875 25.640625 C-11.77966797 26.49978516 -12.12964844 27.35894531 -12.49023438 28.24414062 C-14.06603911 32.21911579 -14.9921875 34.85477941 -14.9921875 39.203125 C-11.73535347 40.83154201 -8.19260415 40.47108077 -4.6171875 40.515625 C-3.84890625 40.54462891 -3.080625 40.57363281 -2.2890625 40.60351562 C1.19473815 40.64269331 3.34121438 40.63545179 6.30859375 38.7109375 C8.65980051 35.24088062 10.25404661 31.64320927 11.8203125 27.765625 C12.14451172 27.01474609 12.46871094 26.26386719 12.80273438 25.49023438 C14.48932471 21.38391059 15.56917962 18.59065384 14.0078125 14.203125 C11.02342297 13.20832849 8.88125664 13.00547323 5.7578125 12.953125 C4.84515625 12.92734375 3.9325 12.9015625 2.9921875 12.875 C-1.02012082 13.31614385 -3.51426348 14.09252197 -6.9921875 16.203125 Z " fill="#2A2A2A" transform="translate(293.9921875,116.796875)"/>
<path d="M0 0 C5.61 0 11.22 0 17 0 C14.2567286 8.62304766 10.89514463 16.98372651 7.53491211 25.38061523 C6.78734692 27.25130305 6.04399449 29.12367267 5.30078125 30.99609375 C4.85903564 32.10138428 4.41729004 33.2066748 3.9621582 34.34545898 C2.88641201 36.84279419 2.88641201 36.84279419 3 39 C5.58445773 39.1081866 8.16437352 39.18737237 10.75 39.25 C11.84441406 39.30027344 11.84441406 39.30027344 12.9609375 39.3515625 C17.29055353 39.43072872 17.29055353 39.43072872 21.02734375 37.47851562 C23.63013384 34.20827738 24.96554687 30.83337588 26.453125 26.953125 C26.91075226 25.79632233 26.91075226 25.79632233 27.37762451 24.6161499 C28.34490708 22.16449575 29.29760401 19.70747027 30.25 17.25 C30.9052939 15.5816554 31.56153368 13.91368198 32.21875 12.24609375 C33.82530058 8.16886312 35.41198493 4.08468047 37 0 C42.94 0 48.88 0 55 0 C52.61947369 7.47813609 49.82345811 14.76956025 46.92138672 22.05688477 C46.12632769 24.05915635 45.34244241 26.06558364 44.55859375 28.07226562 C40.86868673 37.41476381 37.40408702 45.97098105 29 52 C25.54167169 53.1527761 22.33880489 53.26565705 18.734375 53.38671875 C18.02275208 53.41224319 17.31112915 53.43776764 16.57794189 53.46406555 C15.07173857 53.51603309 13.56544593 53.56546491 12.05908203 53.61254883 C9.77190088 53.68678911 7.48576519 53.77762944 5.19921875 53.86914062 C3.73180448 53.91769433 2.26435684 53.96525187 0.796875 54.01171875 C0.12058044 54.04077805 -0.55571411 54.06983734 -1.25250244 54.09977722 C-6.54993892 54.23776974 -11.77478653 53.80798594 -16 50.375 C-19.19390153 42.78948386 -13.58311649 33.21813508 -10.75 26.25 C-10.27175781 25.05117187 -9.79351562 23.85234375 -9.30078125 22.6171875 C-6.27158705 15.04830661 -3.15024095 7.51918825 0 0 Z " fill="#2A2A2A" transform="translate(340,117)"/>
<path d="M0 0 C1.58206057 0.00667536 3.16410534 0.0186375 4.74609375 0.03515625 C5.55240234 0.03966797 6.35871094 0.04417969 7.18945312 0.04882812 C9.18753131 0.06065107 11.18557158 0.07858711 13.18359375 0.09765625 C14.18359375 2.09765625 14.18359375 2.09765625 13.28555298 4.87501526 C12.80669647 6.05780563 12.32783997 7.24059601 11.83447266 8.45922852 C11.44208153 9.437491 11.44208153 9.437491 11.04176331 10.43551636 C10.17204986 12.59813764 9.29126908 14.75606323 8.41015625 16.9140625 C7.80517275 18.41072127 7.20080004 19.90762708 6.59701538 21.4047699 C5.32882901 24.54481047 4.05557679 27.6827299 2.77832031 30.8190918 C1.13799114 34.84721357 -0.49334514 38.87889689 -2.12137413 42.91200352 C-3.36983976 46.00375686 -4.62121595 49.09432458 -5.8736763 52.18446159 C-6.47621228 53.67108676 -7.07826044 55.15790975 -7.67982101 56.64492989 C-8.52002047 58.719553 -9.36368664 60.79272912 -10.20849609 62.86547852 C-10.68894379 64.0474733 -11.16939148 65.22946808 -11.66439819 66.44728088 C-12.81640625 69.09765625 -12.81640625 69.09765625 -13.81640625 70.09765625 C-15.15908038 70.18397499 -16.50614947 70.20472098 -17.8515625 70.1953125 C-18.66044922 70.19208984 -19.46933594 70.18886719 -20.30273438 70.18554688 C-21.15287109 70.17716797 -22.00300781 70.16878906 -22.87890625 70.16015625 C-23.73291016 70.15564453 -24.58691406 70.15113281 -25.46679688 70.14648438 C-27.58336288 70.13465998 -29.6998931 70.11672394 -31.81640625 70.09765625 C-26.90721047 56.74808878 -21.68749314 43.5236582 -16.4465332 30.30151367 C-15.47436587 27.84765078 -14.50333249 25.39337977 -13.53442383 22.93823242 C-12.12452618 19.36663335 -10.71119108 15.79641385 -9.296875 12.2265625 C-8.86150925 11.12260635 -8.42614349 10.01865021 -7.97758484 8.88124084 C-7.57659073 7.87185959 -7.17559662 6.86247833 -6.76245117 5.82250977 C-6.40970627 4.93145035 -6.05696136 4.04039093 -5.69352722 3.12232971 C-4.18741725 -0.35424991 -4.21666414 0.10789826 0 0 Z " fill="#2A2A2A" transform="translate(259.81640625,99.90234375)"/>
<path d="M0 0 C-1.77083746 6.27842374 -4.66725235 12.25985719 -8.90820312 17.24145508 C-11.15057197 20.19856591 -12.46331314 22.95861212 -13.8828125 26.3828125 C-14.41109256 27.63725826 -14.93949915 28.89165074 -15.46801758 30.14599609 C-15.73869049 30.79654968 -16.0093634 31.44710327 -16.28823853 32.11737061 C-21.56386886 44.7751122 -27.31327735 57.01521945 -34 69 C-40.765625 68.1484375 -40.765625 68.1484375 -42.875 66.8125 C-44.99971076 63.38935489 -45.19325782 59.98563141 -44.42919922 56.08886719 C-41.87434272 48.31321698 -39.04137134 40.68090163 -35.90087891 33.12353516 C-35.12160681 31.24180638 -34.3593631 29.3537401 -33.59765625 27.46484375 C-29.06230009 16.38474023 -24.45916813 7.15992069 -13.75 1.1875 C-9.04750656 -0.30162292 -4.88629039 -0.2654524 0 0 Z " fill="#2A2A2A" transform="translate(206,101)"/>
<path d="M0 0 C0 7.26 0 14.52 0 22 C1.98 17.05 3.96 12.1 6 7 C13.26 7 20.52 7 28 7 C28 12.72823213 27.63226751 14.49590715 25.125 19.3125 C24.59132813 20.36050781 24.05765625 21.40851563 23.5078125 22.48828125 C22 25 22 25 20 26 C17.7927077 26.07092842 15.58332548 26.08415025 13.375 26.0625 C12.18648438 26.05347656 10.99796875 26.04445312 9.7734375 26.03515625 C8.85820312 26.02355469 7.94296875 26.01195312 7 26 C6.505 28.475 6.505 28.475 6 31 C3.03 31 0.06 31 -3 31 C-2.67 29.68 -2.34 28.36 -2 27 C-4.97 27 -7.94 27 -11 27 C-10.67 25.02 -10.34 23.04 -10 21 C-13.35817665 21.10944264 -13.35817665 21.10944264 -17 22 C-17.61875 22.845625 -18.2375 23.69125 -18.875 24.5625 C-21 27 -21 27 -23.2421875 27.328125 C-25.51319769 27.3139754 -27.73732058 27.17849964 -30 27 C-29.63865967 26.46125244 -29.27731934 25.92250488 -28.9050293 25.36743164 C-26.20724393 21.33441821 -23.54716064 17.28666096 -20.95703125 13.18359375 C-19.91066596 11.60036358 -18.86248476 10.01833208 -17.8125 8.4375 C-17.31169922 7.61958984 -16.81089844 6.80167969 -16.29492188 5.95898438 C-11.21254819 -1.52392006 -10.31284273 0 0 0 Z M-10 11 C-10.66 12.32 -11.32 13.64 -12 15 C-11.01 15 -10.02 15 -9 15 C-9.33 13.68 -9.66 12.36 -10 11 Z M13 12 C10.7986134 15.80427492 10.7986134 15.80427492 10 20 C11.98 20 13.96 20 16 20 C16.99 17.36 17.98 14.72 19 12 C17.02 12 15.04 12 13 12 Z " fill="#2A2A2A" transform="translate(397,183)"/>
<path d="M0 0 C-0.33 1.98 -0.66 3.96 -1 6 C-5.29 6 -9.58 6 -14 6 C-14 6.66 -14 7.32 -14 8 C-10.7 8 -7.4 8 -4 8 C-2.88790069 11.43739786 -2.90836529 12.77745857 -4.3125 16.1875 C-6 19 -6 19 -8 21 C-10.98962103 21.20006302 -13.8846235 21.27972923 -16.875 21.265625 C-18.19540283 21.26849518 -18.19540283 21.26849518 -19.54248047 21.27142334 C-21.40527634 21.27278552 -23.26808169 21.26908682 -25.13085938 21.26074219 C-27.98849736 21.25004307 -30.84550666 21.26063632 -33.703125 21.2734375 C-35.51041806 21.27211591 -37.31771073 21.26955353 -39.125 21.265625 C-39.98335449 21.26967346 -40.84170898 21.27372192 -41.72607422 21.27789307 C-47.77008255 21.22991745 -47.77008255 21.22991745 -50 19 C-49.84270377 12.70815099 -46.44087799 5.44087799 -42 1 C-40.02880859 0.77294922 -40.02880859 0.77294922 -37.6484375 0.8046875 C-36.79765625 0.81113281 -35.946875 0.81757813 -35.0703125 0.82421875 C-33.73613281 0.84935547 -33.73613281 0.84935547 -32.375 0.875 C-31.4778125 0.88402344 -30.580625 0.89304688 -29.65625 0.90234375 C-27.43723414 0.9259503 -25.21874923 0.9588769 -23 1 C-23.11509661 2.41750563 -23.24253658 3.83401169 -23.375 5.25 C-23.44460938 6.03890625 -23.51421875 6.8278125 -23.5859375 7.640625 C-24 10 -24 10 -26 14 C-30.95 14 -35.9 14 -41 14 C-41 14.66 -41 15.32 -41 16 C-31.92551747 16.11157151 -23.03721311 15.94242818 -14 15 C-16.97 14.34 -19.94 13.68 -23 13 C-22.24152542 3.89830508 -22.24152542 3.89830508 -19 1 C-16.03384973 0.54140789 -13.40998284 0.3042694 -10.4375 0.25 C-9.65697266 0.22035156 -8.87644531 0.19070312 -8.07226562 0.16015625 C-5.38155915 0.06265006 -2.69257904 0 0 0 Z M-37 6 C-37.33 6.99 -37.66 7.98 -38 9 C-36.35 9 -34.7 9 -33 9 C-32.67 8.01 -32.34 7.02 -32 6 C-33.65 6 -35.3 6 -37 6 Z M-28 18 C-27 20 -27 20 -27 20 Z " fill="#2A2A2A" transform="translate(349,189)"/>
<path d="M0 0 C3.60409919 -0.05800828 7.20807851 -0.09359869 10.8125 -0.125 C11.83666016 -0.14175781 12.86082031 -0.15851563 13.91601562 -0.17578125 C14.89892578 -0.18222656 15.88183594 -0.18867188 16.89453125 -0.1953125 C17.80050049 -0.20578613 18.70646973 -0.21625977 19.63989258 -0.22705078 C22 0 22 0 25 2 C24.57316761 3.58624235 24.13303842 5.1689098 23.6875 6.75 C23.44386719 7.63171875 23.20023437 8.5134375 22.94921875 9.421875 C21.9746507 12.06884995 20.70821205 13.78305813 19 16 C18.61866701 17.9914056 18.28674418 19.99279077 18 22 C17.37774395 23.68375165 16.72455635 25.35767228 16 27 C13.03 27 10.06 27 7 27 C7.66 24.36 8.32 21.72 9 19 C6.69 18.67 4.38 18.34 2 18 C1.01 20.97 0.02 23.94 -1 27 C-3.97 27 -6.94 27 -10 27 C-9.37344935 23.33597797 -8.35781607 20.12938799 -6.93359375 16.69921875 C-6.3293457 15.23452148 -6.3293457 15.23452148 -5.71289062 13.74023438 C-5.29201172 12.73283203 -4.87113281 11.72542969 -4.4375 10.6875 C-4.01275391 9.66076172 -3.58800781 8.63402344 -3.15039062 7.57617188 C-2.10429072 5.04907659 -1.05404084 2.52379106 0 0 Z M7 6 C6.34 7.98 5.68 9.96 5 12 C8.41656024 12.16677282 8.41656024 12.16677282 12 12 C12.66 11.34 13.32 10.68 14 10 C14 8.68 14 7.36 14 6 C11.69 6 9.38 6 7 6 Z " fill="#292929" transform="translate(281,183)"/>
<path d="M0 0 C11.55 0 23.1 0 35 0 C34 6 34 6 30 14 C17.46 14 4.92 14 -8 14 C-5.36 9.38 -2.72 4.76 0 0 Z " fill="#2A2A2A" transform="translate(189,156)"/>
<path d="M0 0 C6.22704986 0.51454544 11.39596744 3.25847496 16.9375 5.9375 C18.47349854 6.6790332 18.47349854 6.6790332 20.04052734 7.43554688 C28.55003207 11.62805416 36.44782443 16.26262053 44 22 C44.58491211 22.4434375 45.16982422 22.886875 45.77246094 23.34375 C54.22768523 29.86701345 61.66830659 37.02273461 66 47 C66 47.969375 66 48.93875 66 49.9375 C66.69207703 53.13863012 66.69207703 53.13863012 69.28515625 54.49609375 C71.82661992 55.75788936 74.37517926 56.92339476 77 58 C73.59068103 59.13643966 72.99664544 58.86747764 69.8125 57.5625 C69.09707031 57.27503906 68.38164062 56.98757812 67.64453125 56.69140625 C67.10183594 56.46324219 66.55914062 56.23507813 66 56 C65.67 57.32 65.34 58.64 65 60 C61.37 60 57.74 60 54 60 C55.33333333 57.33333333 56.66666667 54.66666667 58 52 C58.99 52 59.98 52 61 52 C60.01 51.34 59.02 50.68 58 50 C57.21875 48.0390625 57.21875 48.0390625 56.5 45.625 C48.02062713 23.50212492 18.73470544 11.51909321 -1 2 C-0.67 1.34 -0.34 0.68 0 0 Z " fill="#2A2B2B" transform="translate(246,52)"/>
<path d="M0 0 C0.66 0.33 1.32 0.66 2 1 C2 1.66 2 2.32 2 3 C1.21625 3.45375 0.4325 3.9075 -0.375 4.375 C-3.26815009 6.16599768 -4.04464279 6.78652574 -5 10 C-5.82311852 18.23118516 -3.18086112 23.53434369 1.9375 29.875 C11.50932962 40.23605025 23.83583871 47.15310682 36 54 C35.34 54.66 34.68 55.32 34 56 C28.5033062 55.81298231 24.72044757 53.3404297 20.25 50.4375 C19.54625244 49.98858398 18.84250488 49.53966797 18.11743164 49.07714844 C12.43869976 45.40202371 7.15080682 41.38488759 2 37 C1.05253906 36.26910156 1.05253906 36.26910156 0.0859375 35.5234375 C-6.67568131 30.1915883 -12.82076554 22.41775676 -14.40625 13.7890625 C-14.60596924 9.1788766 -14.15134688 6.58732826 -11.125 3 C-7.30342839 -0.9877269 -5.43817465 -1.13295305 0 0 Z " fill="#2A2B2B" transform="translate(162,42)"/>
<path d="M0 0 C2.0164583 0.03979852 4.0324896 0.11124076 6.046875 0.2109375 C7.59375 0.25154297 7.59375 0.25154297 9.171875 0.29296875 C11.7156625 0.36362951 14.25520599 0.46221672 16.796875 0.5859375 C16.1021631 5.96995476 14.19421246 9.19192821 11.796875 14.5859375 C3.546875 14.5859375 -4.703125 14.5859375 -13.203125 14.5859375 C-11.883125 11.9459375 -10.563125 9.3059375 -9.203125 6.5859375 C-8.69265625 5.43867187 -8.1821875 4.29140625 -7.65625 3.109375 C-4.76591985 0.13620099 -4.00253086 0.17288057 0 0 Z " fill="#2A2A2A" transform="translate(229.203125,100.4140625)"/>
<path d="M0 0 C-0.33 0.99 -0.66 1.98 -1 3 C-6.86378551 2.34846828 -12.23842976 0.83076332 -17.875 -0.875 C-34.42210762 -5.65375212 -49.30480119 -7.36038036 -66.48974609 -6.89013672 C-67.7886377 -6.8645166 -69.0875293 -6.83889648 -70.42578125 -6.8125 C-72.18015503 -6.76029297 -72.18015503 -6.76029297 -73.9699707 -6.70703125 C-77.28915102 -7.02795756 -78.59948334 -7.75179758 -81 -10 C-58.07949804 -18.17651144 -21.42146152 -10.71073076 0 0 Z " fill="#2A2A2A" transform="translate(242,49)"/>
<path d="M0 0 C2.97 0 5.94 0 9 0 C8.67 1.65 8.34 3.3 8 5 C9.32 5.33 10.64 5.66 12 6 C11.67 7.65 11.34 9.3 11 11 C10.071875 11 9.14375 11 8.1875 11 C4.93907386 11.62420721 4.93907386 11.62420721 3.93359375 13.84765625 C3.19043389 15.88326804 2.54455074 17.90300196 2 20 C3.32 20.66 4.64 21.32 6 22 C5.34 23.32 4.68 24.64 4 26 C0.04 26 -3.92 26 -8 26 C-8 19.25 -8 19.25 -6 15.125 C-5.62875 14.34382812 -5.2575 13.56265625 -4.875 12.7578125 C-4.441875 11.88769531 -4.441875 11.88769531 -4 11 C-5.32 11 -6.64 11 -8 11 C-7.67 9.35 -7.34 7.7 -7 6 C-6.21625 5.938125 -5.4325 5.87625 -4.625 5.8125 C-3.75875 5.544375 -2.8925 5.27625 -2 5 C-0.62533375 2.52363988 -0.62533375 2.52363988 0 0 Z " fill="#2A2A2A" transform="translate(357,184)"/>
<path d="M0 0 C2.97 0 5.94 0 9 0 C6.36 6.6 3.72 13.2 1 20 C-1.97 20 -4.94 20 -8 20 C-7.0443848 17.41563186 -6.08562111 14.83250699 -5.125 12.25 C-4.85558594 11.52039063 -4.58617187 10.79078125 -4.30859375 10.0390625 C-4.04433594 9.33007812 -3.78007812 8.62109375 -3.5078125 7.890625 C-3.26691895 7.24125977 -3.02602539 6.59189453 -2.77783203 5.92285156 C-1.96009365 3.90134891 -0.97520962 1.95041925 0 0 Z " fill="#282828" transform="translate(428,190)"/>
<path d="M0 0 C7.41216681 0.35865323 12.56479472 2.35920537 19 6 C15.59068103 7.13643966 14.99664544 6.86747764 11.8125 5.5625 C11.09707031 5.27503906 10.38164062 4.98757812 9.64453125 4.69140625 C9.10183594 4.46324219 8.55914062 4.23507813 8 4 C7.67 5.32 7.34 6.64 7 8 C3.37 8 -0.26 8 -4 8 C-2.66666667 5.33333333 -1.33333333 2.66666667 0 0 Z " fill="#2B2D2E" transform="translate(304,104)"/>
<path d="M0 0 C2.97 0 5.94 0 9 0 C8.34 1.65 7.68 3.3 7 5 C4.36 5 1.72 5 -1 5 C-0.67 3.35 -0.34 1.7 0 0 Z " fill="#282828" transform="translate(430,184)"/>
<path d="M0 0 C5.34844008 0.53484401 9.35796103 2.46690767 14 5 C10.40922594 6.19692469 9.75687727 5.73508446 6.4375 4.1875 C5.65246094 3.83042969 4.86742187 3.47335938 4.05859375 3.10546875 C2 2 2 2 0 0 Z " fill="#1080F2" transform="translate(309,105)"/>
</svg>
